<svg width="16" height="20" viewBox="0 0 16 20" fill="none" xmlns="http://www.w3.org/2000/svg">
<path d="M8 9.88262C8.55 9.88262 9.021 9.6952 9.413 9.32036C9.805 8.94552 10.0007 8.49545 10 7.97016C10 7.44424 9.804 6.99385 9.412 6.61901C9.02 6.24416 8.54933 6.05706 8 6.0577C7.45 6.0577 6.979 6.24512 6.587 6.61996C6.195 6.99481 5.99933 7.44487 6 7.97016C6 8.49609 6.196 8.94648 6.588 9.32132C6.98 9.69616 7.45067 9.88326 8 9.88262ZM8 16.9109C10.0333 15.126 11.5417 13.5042 12.525 12.0456C13.5083 10.587 14 9.29231 14 8.16141C14 6.42425 13.4207 5.00202 12.262 3.8947C11.1033 2.78739 9.68267 2.23341 8 2.23277C6.31667 2.23277 4.89567 2.78675 3.737 3.8947C2.57833 5.00266 1.99933 6.42489 2 8.16141C2 9.29295 2.49167 10.588 3.475 12.0466C4.45833 13.5051 5.96667 15.1266 8 16.9109ZM8 19.4449C5.31667 17.2615 3.31267 15.2337 1.988 13.3614C0.663333 11.4891 0.000666667 9.75576 0 8.16141C0 5.77083 0.804333 3.86634 2.413 2.44793C4.02167 1.02952 5.884 0.320312 8 0.320312C10.1167 0.320312 11.9793 1.02952 13.588 2.44793C15.1967 3.86634 16.0007 5.77083 16 8.16141C16 9.75513 15.3373 11.4885 14.012 13.3614C12.6867 15.2343 10.6827 17.2622 8 19.4449Z" fill="white"/>
</svg>
