<svg width="30" height="30" viewBox="0 0 30 30" fill="none" xmlns="http://www.w3.org/2000/svg">
<path d="M15 9.60938C13.9338 9.60938 12.8916 9.92553 12.0051 10.5179C11.1186 11.1102 10.4277 11.9521 10.0197 12.9371C9.61171 13.9221 9.50496 15.006 9.71295 16.0517C9.92095 17.0973 10.4344 18.0579 11.1883 18.8117C11.9421 19.5656 12.9027 20.079 13.9483 20.287C14.994 20.495 16.0779 20.3883 17.0629 19.9803C18.0479 19.5723 18.8898 18.8814 19.4821 17.9949C20.0745 17.1084 20.3906 16.0662 20.3906 15C20.3888 13.5709 19.8202 12.2008 18.8097 11.1903C17.7992 10.1798 16.4291 9.61124 15 9.60938ZM15 18.9844C14.212 18.9844 13.4416 18.7507 12.7864 18.3129C12.1312 17.8751 11.6205 17.2528 11.3189 16.5248C11.0173 15.7967 10.9384 14.9956 11.0922 14.2227C11.2459 13.4498 11.6254 12.7398 12.1826 12.1826C12.7398 11.6254 13.4498 11.2459 14.2227 11.0922C14.9956 10.9384 15.7967 11.0173 16.5248 11.3189C17.2528 11.6205 17.8751 12.1312 18.3129 12.7864C18.7507 13.4416 18.9844 14.212 18.9844 15C18.9844 16.0567 18.5646 17.0702 17.8174 17.8174C17.0702 18.5646 16.0567 18.9844 15 18.9844ZM20.625 3.04688H9.375C7.69725 3.04874 6.08875 3.71605 4.9024 4.9024C3.71605 6.08875 3.04874 7.69725 3.04688 9.375V20.625C3.04874 22.3028 3.71605 23.9113 4.9024 25.0976C6.08875 26.284 7.69725 26.9513 9.375 26.9531H20.625C22.3028 26.9513 23.9113 26.284 25.0976 25.0976C26.284 23.9113 26.9513 22.3028 26.9531 20.625V9.375C26.9513 7.69725 26.284 6.08875 25.0976 4.9024C23.9113 3.71605 22.3028 3.04874 20.625 3.04688ZM25.5469 20.625C25.5469 21.9304 25.0283 23.1823 24.1053 24.1053C23.1823 25.0283 21.9304 25.5469 20.625 25.5469H9.375C8.06964 25.5469 6.81774 25.0283 5.89471 24.1053C4.97168 23.1823 4.45312 21.9304 4.45312 20.625V9.375C4.45312 8.06964 4.97168 6.81774 5.89471 5.89471C6.81774 4.97168 8.06964 4.45312 9.375 4.45312H20.625C21.9304 4.45312 23.1823 4.97168 24.1053 5.89471C25.0283 6.81774 25.5469 8.06964 25.5469 9.375V20.625ZM22.2656 8.90625C22.2656 9.13802 22.1969 9.36459 22.0681 9.55731C21.9394 9.75002 21.7563 9.90022 21.5422 9.98892C21.3281 10.0776 21.0925 10.1008 20.8651 10.0556C20.6378 10.0104 20.429 9.89878 20.2651 9.73489C20.1012 9.571 19.9896 9.36219 19.9444 9.13487C19.8992 8.90755 19.9224 8.67193 20.0111 8.45779C20.0998 8.24366 20.25 8.06064 20.4427 7.93187C20.6354 7.8031 20.862 7.73438 21.0938 7.73438C21.4046 7.73438 21.7026 7.85784 21.9224 8.07761C22.1422 8.29738 22.2656 8.59545 22.2656 8.90625Z" fill="#1E1E1E"/>
</svg>
