<svg width="30" height="30" viewBox="0 0 30 30" fill="none" xmlns="http://www.w3.org/2000/svg">
<path d="M27.6051 3.2464C27.4921 3.14875 27.3545 3.08382 27.2072 3.05863C27.06 3.03343 26.9086 3.04892 26.7696 3.10343L3.02034 12.3976C2.73148 12.5106 2.48708 12.7143 2.32385 12.9781C2.16062 13.2418 2.08738 13.5515 2.11512 13.8604C2.14286 14.1694 2.27008 14.461 2.47768 14.6914C2.68528 14.9219 2.96205 15.0788 3.26643 15.1386L9.60862 16.3843V23.4378C9.60875 23.7648 9.7066 24.0843 9.8896 24.3553C10.0726 24.6263 10.3324 24.8364 10.6357 24.9587C10.939 25.081 11.2719 25.1099 11.5917 25.0416C11.9115 24.9734 12.2036 24.8111 12.4305 24.5757L15.5524 21.3378L20.425 25.6093C20.7225 25.8725 21.1059 26.018 21.5032 26.0183C21.6766 26.0179 21.849 25.9906 22.0141 25.9374C22.2848 25.8518 22.5283 25.6966 22.7203 25.4875C22.9124 25.2784 23.0463 25.0226 23.1086 24.7456L27.8688 4.05148C27.9022 3.906 27.8954 3.75414 27.8489 3.61227C27.8024 3.4704 27.7182 3.3439 27.6051 3.2464ZM3.52073 13.7546C3.51624 13.7425 3.51624 13.7292 3.52073 13.7171C3.52602 13.713 3.53197 13.7099 3.53831 13.7077L22.2543 6.38117L10.1489 15.053L3.53831 13.7593L3.52073 13.7546ZM11.418 23.5984C11.3857 23.6319 11.3442 23.655 11.2987 23.6648C11.2532 23.6746 11.2058 23.6707 11.1625 23.6535C11.1193 23.6362 11.0821 23.6065 11.0558 23.5681C11.0296 23.5297 11.0153 23.4844 11.0149 23.4378V17.3569L14.4942 20.4038L11.418 23.5984ZM21.7387 24.428C21.7301 24.4677 21.7109 24.5042 21.6833 24.5339C21.6557 24.5636 21.6206 24.5853 21.5817 24.5968C21.542 24.6107 21.4993 24.6137 21.4581 24.6055C21.4168 24.5972 21.3786 24.578 21.3473 24.5499L11.4414 15.8605L26.1321 5.33234L21.7387 24.428Z" fill="#1E1E1E"/>
</svg>
