<svg width="37" height="37" viewBox="0 0 37 37" fill="none" xmlns="http://www.w3.org/2000/svg">
<path d="M30.0625 4.625H26.5938V3.46875C26.5938 3.16209 26.4719 2.868 26.2551 2.65116C26.0383 2.43432 25.7442 2.3125 25.4375 2.3125C25.1308 2.3125 24.8367 2.43432 24.6199 2.65116C24.4031 2.868 24.2812 3.16209 24.2812 3.46875V4.625H12.7188V3.46875C12.7188 3.16209 12.5969 2.868 12.3801 2.65116C12.1633 2.43432 11.8692 2.3125 11.5625 2.3125C11.2558 2.3125 10.9617 2.43432 10.7449 2.65116C10.5281 2.868 10.4062 3.16209 10.4062 3.46875V4.625H6.9375C6.32419 4.625 5.73599 4.86864 5.30232 5.30232C4.86864 5.73599 4.625 6.32419 4.625 6.9375V30.0625C4.625 30.6758 4.86864 31.264 5.30232 31.6977C5.73599 32.1314 6.32419 32.375 6.9375 32.375H30.0625C30.6758 32.375 31.264 32.1314 31.6977 31.6977C32.1314 31.264 32.375 30.6758 32.375 30.0625V6.9375C32.375 6.32419 32.1314 5.73599 31.6977 5.30232C31.264 4.86864 30.6758 4.625 30.0625 4.625ZM10.4062 6.9375V8.09375C10.4062 8.40041 10.5281 8.6945 10.7449 8.91134C10.9617 9.12818 11.2558 9.25 11.5625 9.25C11.8692 9.25 12.1633 9.12818 12.3801 8.91134C12.5969 8.6945 12.7188 8.40041 12.7188 8.09375V6.9375H24.2812V8.09375C24.2812 8.40041 24.4031 8.6945 24.6199 8.91134C24.8367 9.12818 25.1308 9.25 25.4375 9.25C25.7442 9.25 26.0383 9.12818 26.2551 8.91134C26.4719 8.6945 26.5938 8.40041 26.5938 8.09375V6.9375H30.0625V11.5625H6.9375V6.9375H10.4062ZM30.0625 30.0625H6.9375V13.875H30.0625V30.0625ZM24.5212 17.682C24.6287 17.7893 24.714 17.9169 24.7721 18.0572C24.8303 18.1976 24.8603 18.3481 24.8603 18.5C24.8603 18.6519 24.8303 18.8024 24.7721 18.9428C24.714 19.0831 24.6287 19.2107 24.5212 19.318L17.5837 26.2555C17.4763 26.3631 17.3488 26.4483 17.2084 26.5065C17.068 26.5647 16.9176 26.5947 16.7656 26.5947C16.6137 26.5947 16.4632 26.5647 16.3229 26.5065C16.1825 26.4483 16.055 26.3631 15.9476 26.2555L12.4788 22.7868C12.2619 22.5698 12.14 22.2756 12.14 21.9688C12.14 21.6619 12.2619 21.3677 12.4788 21.1507C12.6958 20.9337 12.99 20.8119 13.2969 20.8119C13.6037 20.8119 13.898 20.9337 14.1149 21.1507L16.7656 23.8029L22.8851 17.682C22.9925 17.5744 23.12 17.4892 23.2604 17.431C23.4007 17.3728 23.5512 17.3428 23.7031 17.3428C23.8551 17.3428 24.0055 17.3728 24.1459 17.431C24.2863 17.4892 24.4138 17.5744 24.5212 17.682Z" fill="#6B7276"/>
</svg>
